<?xml version="1.0" encoding="utf-8"?>
<!-- Generator: Adobe Illustrator 16.0.0, SVG Export Plug-In . SVG Version: 6.00 Build 0)  -->
<!DOCTYPE svg PUBLIC "-//W3C//DTD SVG 1.1//EN" "http://www.w3.org/Graphics/SVG/1.1/DTD/svg11.dtd">
<svg version="1.1" id="Layer_1" xmlns="http://www.w3.org/2000/svg" xmlns:xlink="http://www.w3.org/1999/xlink" x="0px" y="0px"
	 width="289.741px" height="385.784px" viewBox="0 0 289.741 385.784" enable-background="new 0 0 289.741 385.784"
	 xml:space="preserve">
<g>
	<path fill-rule="evenodd" clip-rule="evenodd" fill="#FE8E00" d="M97.51,119.746c22.991,0,45.982-0.067,68.974,0.047
		c5.881,0.029,11.813,0.367,17.034,3.711c8.09,5.183,9.98,13.414,10.505,22.095c0.371,6.143,0.4,12.348-0.042,18.481
		c-0.3,4.159,1.84,5.078,5.049,5.502c23.057,3.052,42.672,13.44,58.922,29.576c16.598,16.481,26.999,36.43,30.398,59.989
		c4.549,31.535-1.897,60.307-21.618,85.275c-17.207,21.788-39.792,35.487-67.695,39.424c-8.624,1.217-17.33,0.998-26.008,1.317
		c-32.116,1.183-64.217,0.098-96.319,0.512c-16.158,0.208-32.322-0.047-48.48,0.106c-3.193,0.03-4.242-0.741-4.192-4.092
		c0.195-13.326-0.001-26.656,0.147-39.982c0.03-2.738-0.549-4.343-3.428-4.821C3.979,334.096,0.347,325.11,0.271,312.725
		c-0.344-55.977-0.372-111.958-0.016-167.935c0.107-16.777,8.14-24.309,25.788-24.86C49.844,119.187,73.686,119.746,97.51,119.746z"
		/>
	<path fill-rule="evenodd" clip-rule="evenodd" fill="#FE8E00" d="M48.113,48.723c0.999-28.909,20.783-48.868,49.14-48.722
		c29.104,0.149,48.785,20.639,48.604,49.06c-0.184,28.674-20.256,48.396-48.681,48.45C68.646,97.567,49.054,77.473,48.113,48.723z"
		/>
	<path fill-rule="evenodd" clip-rule="evenodd" fill="#FEFEFE" d="M181.073,358.57c-45.012-0.924-82.206-36.868-81.615-82.93
		c0.561-43.721,36.348-81.656,83.794-80.525c43.258,1.029,80.042,36.4,79.425,82.896
		C262.094,322.022,226.461,357.505,181.073,358.57z"/>
	<path fill-rule="evenodd" clip-rule="evenodd" fill="#FE8E00" d="M168.098,300.724c0-10.996,0.138-21.995-0.082-32.988
		c-0.067-3.375,1.029-4.196,4.21-4.076c6.156,0.233,12.329,0.175,18.49,0.018c2.538-0.064,3.449,0.59,3.437,3.305
		c-0.104,22.492-0.104,44.987,0,67.479c0.013,2.711-0.891,3.373-3.434,3.308c-6.161-0.158-12.335-0.215-18.49,0.017
		c-3.176,0.12-4.281-0.691-4.213-4.073C168.236,322.72,168.098,311.721,168.098,300.724z"/>
	<path fill-rule="evenodd" clip-rule="evenodd" fill="#FE8E00" d="M180.188,241.73c-3.347-0.346-8.676,1.763-11.269-0.764
		c-2.61-2.545-0.611-7.89-0.792-12.002c-0.146-3.324,0.144-6.674-0.082-9.99c-0.188-2.752,0.935-3.347,3.447-3.289
		c6.493,0.148,12.994,0.134,19.488,0.006c2.334-0.047,3.215,0.608,3.162,3.063c-0.146,6.661-0.15,13.329,0.001,19.989
		c0.057,2.498-0.898,3.132-3.196,3.026C187.624,241.616,184.287,241.73,180.188,241.73z"/>
</g>
</svg>
