<?xml version="1.0" encoding="utf-8"?>
<!-- Generator: Adobe Illustrator 16.0.0, SVG Export Plug-In . SVG Version: 6.00 Build 0)  -->
<!DOCTYPE svg PUBLIC "-//W3C//DTD SVG 1.1//EN" "http://www.w3.org/Graphics/SVG/1.1/DTD/svg11.dtd">
<svg version="1.1" xmlns="http://www.w3.org/2000/svg" xmlns:xlink="http://www.w3.org/1999/xlink" x="0px" y="0px" width="500px"
	 height="500px" viewBox="0 0 500 500" enable-background="new 0 0 500 500" xml:space="preserve">
<g id="Layer_12_xA0_Image_1_">
	<g>
		<path fill-rule="evenodd" clip-rule="evenodd" d="M174.171,189.002c25.63,0,50.611,0.064,75.591-0.078
			c3.304-0.02,3.591,2.074,4.488,4.193c12.669,29.958,33.988,51.204,64.791,61.84c33.104,11.432,64.603,6.768,94.05-12.085
			c1.074-0.688,2.186-1.319,4.018-2.422c-0.622,1.985-0.922,3.22-1.388,4.388c-7.951,19.924-15.998,39.81-23.812,59.787
			c-1.277,3.267-2.817,4.476-6.447,4.466c-52.979-0.133-105.958-0.106-158.937-0.049c-2.868,0.003-4.757-0.253-6.046-3.511
			c-14.939-37.726-30.076-75.373-45.151-113.046C174.966,191.582,174.709,190.635,174.171,189.002z"/>
		<path fill-rule="evenodd" clip-rule="evenodd" d="M54.115,165c0-8.227,0-15.708,0-24c1.618,0,3.193,0,4.769,0
			c19.496,0,38.993,0.115,58.486-0.103c3.649-0.04,5.175,1.302,6.536,4.428c26.301,60.399,52.771,120.727,78.965,181.173
			c2.173,5.014,4.636,6.681,10.184,6.656c56.82-0.252,113.641-0.154,170.461-0.154c1.967,0,3.933,0,6.188,0c0,7.978,0,15.579,0,24
			c-1.596,0-3.338,0-5.08,0c-63.152,0-126.305-0.048-189.457,0.111c-4.049,0.011-5.709-1.339-7.251-4.884
			c-26.213-60.256-52.642-120.419-78.784-180.705c-2.167-4.998-4.58-6.868-10.172-6.686C84.181,165.318,69.375,165,54.115,165z"/>
		<path fill-rule="evenodd" clip-rule="evenodd" d="M438,153.017c-0.002,46.324-37.671,84.039-83.881,83.983
			c-46.67-0.057-84.178-37.628-84.119-84.264c0.059-46.451,37.829-83.813,84.652-83.736C400.502,69.076,438.002,106.877,438,153.017
			z M419.997,152.403c0.161-35.897-28.711-65.187-64.469-65.399c-35.921-0.215-65.261,28.597-65.523,64.343
			c-0.266,36.135,28.72,65.539,64.717,65.65C390.595,217.108,419.837,188.172,419.997,152.403z"/>
		<path fill-rule="evenodd" clip-rule="evenodd" d="M233.791,381.002c19.853-0.091,36.069,15.883,36.208,35.667
			c0.142,20.078-15.945,36.291-36.048,36.329c-19.755,0.037-35.918-16.114-35.948-35.922
			C197.972,397.22,213.971,381.092,233.791,381.002z"/>
		<path fill-rule="evenodd" clip-rule="evenodd" d="M389.998,416.898c0.048,20.042-16.154,36.165-36.277,36.1
			c-19.531-0.063-35.582-16.083-35.719-35.651c-0.142-20.089,15.979-36.354,36.02-36.345
			C373.84,381.011,389.951,397.086,389.998,416.898z"/>
	</g>
</g>
<g id="Layer_13_xA0_Image_1_">
	<g>
		<path fill-rule="evenodd" clip-rule="evenodd" d="M300,119c1.221-0.647,2.441-1.295,3.662-1.942
			c0.689,1.396,1.893,2.762,1.973,4.191c0.256,4.563,0.095,9.15,0.095,13.729c0.499-0.005,0.999-0.009,1.498-0.013
			c0-4.562-0.254-9.144,0.128-13.672c0.148-1.74,1.746-3.357,2.682-5.03c0.896,1.722,2.414,3.392,2.566,5.177
			c0.375,4.405,0.123,8.864,0.123,13.302c0.436,0.038,0.87,0.076,1.305,0.114c0.119-2.382-0.09-4.838,0.432-7.127
			c0.873-3.83-2.742-10.909,2.688-10.849c5.003,0.055,1.704,7.207,2.476,11.137c0.43,2.187,0.077,4.527,1.245,6.892
			c0.148-1.111,0.406-2.222,0.424-3.336c0.065-3.99-0.133-7.995,0.176-11.963c0.092-1.17,1.527-2.236,2.347-3.351
			c0.933,0.801,2.674,1.602,2.673,2.401c-0.006,7.281-0.029,14.591-0.732,21.825c-0.18,1.858-2.444,4.188-4.328,5.07
			c-4.09,1.915-4.617,4.78-4.346,8.797c0.716,10.612,1.189,21.247,1.405,31.881c0.038,1.904-1.616,3.844-2.489,5.767
			c-1.334,0-2.666,0-4,0c-0.701-2.053-2.052-4.123-1.997-6.154c0.304-11.234,1.069-22.456,1.345-33.689
			c0.04-1.615-1.449-3.524-2.699-4.861c-2.723-2.914-5.747-5.547-8.648-8.295C300,132.333,300,125.667,300,119z"/>
		<path fill-rule="evenodd" clip-rule="evenodd" d="M407,189c-2.435,0.447-5.256,1.818-7.17,1.018
			c-1.289-0.539-1.705-4.129-1.785-6.38c-0.123-3.475,0.393-6.97,0.606-10.458c0.524-8.558,0.873-16.526-4.229-24.742
			c-6.831-11.001-3.685-22.266,6.577-33.438c0.666,0,1.334,0,2,0c0.676,1.952,1.881,3.887,1.945,5.858
			c0.574,17.753,0.934,35.512,1.404,53.268c0.043,1.629,0.426,3.249,0.65,4.874C407,182.333,407,185.667,407,189z"/>
		<path fill-rule="evenodd" clip-rule="evenodd" d="M357.829,185.422c-17.271-0.094-31.337-14.353-31.268-31.694
			c0.067-16.936,14.339-30.979,31.45-30.948c17.406,0.031,31.362,14.191,31.18,31.637
			C389.013,171.575,374.914,185.514,357.829,185.422z M358.147,127.388c-14.851-0.06-26.725,11.643-26.862,26.473
			c-0.136,14.688,11.701,26.769,26.439,26.982c14.653,0.213,27.008-12.206,26.926-27.068
			C384.572,139.361,372.604,127.446,358.147,127.388z"/>
		<path fill-rule="evenodd" clip-rule="evenodd" d="M358.049,178.821c-13.484,0.028-24.865-11.359-24.843-24.859
			c0.021-13.297,11.222-24.5,24.56-24.566c13.544-0.067,25.074,11.413,24.883,24.775
			C382.457,167.532,371.219,178.794,358.049,178.821z"/>
	</g>
</g>
</svg>
