<?xml version="1.0" encoding="utf-8"?>
<!-- Generator: Adobe Illustrator 16.0.0, SVG Export Plug-In . SVG Version: 6.00 Build 0)  -->
<!DOCTYPE svg PUBLIC "-//W3C//DTD SVG 1.1//EN" "http://www.w3.org/Graphics/SVG/1.1/DTD/svg11.dtd">
<svg version="1.1" id="Layer_6_xA0_Image_1_" xmlns="http://www.w3.org/2000/svg" xmlns:xlink="http://www.w3.org/1999/xlink"
	 x="0px" y="0px" width="500px" height="500px" viewBox="0 0 500 500" enable-background="new 0 0 500 500" xml:space="preserve">
<g>
	<path d="M15.683,301.283c4.432,9.45,8.438,19.13,13.372,28.312c18.256,33.975,44.842,58.146,83.129,67.03
		c32.344,7.506,64.298,3.865,95.046-7.855c17.029-6.491,33.071-15.526,49.848-22.74c20.505-8.818,41.795-11.895,63.779-5.989
		c18.593,4.994,33.586,15.276,44.912,30.883c-10.621-9.502-22.68-16.431-36.342-20.503c-21.27-6.34-41.926-3.704-61.646,5.492
		c-13.677,6.378-26.583,14.385-40.115,21.098c-20.128,9.986-41.496,15.98-63.882,18.247c-0.944,0.096-1.857,0.489-2.785,0.744
		c-8.667,0-17.333,0-26,0c-0.773-0.245-1.533-0.644-2.321-0.713c-34.179-3.008-63.163-16.712-85.501-42.923
		C29.745,351.91,19.536,327.922,15.683,301.283z"/>
	<path d="M486,194c-2.015,11.337-5.012,22.346-11.169,32.233c-2.515,4.038-5.251,7.938-8.864,11.55
		c0.479-4.176,1.105-8.34,1.412-12.527c1.299-17.745-7.363-30.462-20.767-40.736c-15.436-11.833-33.342-18.472-51.511-24.585
		c-3.93-1.322-7.936-2.629-11.563-4.581c-9.169-4.933-13.291-13.498-12.11-24.169c0.235,0.135,0.639,0.239,0.658,0.395
		c1.979,15.062,7.063,20.664,21.889,24.556c16.451,4.317,32.546,9.683,47.253,18.416c15.982,9.491,28.622,21.745,32.184,41.276
		c7.073-14.691,11.022-29.608,3.585-45.221c-6.458-13.554-18.354-22.052-30.014-30.634c-3.885-2.858-8.007-5.392-11.918-8.215
		c-4.646-3.353-6.408-7.812-4.445-13.571c-0.834,7.195,3.484,10.715,8.835,14.258c10.633,7.044,21.071,14.438,31.122,22.288
		c9.358,7.31,13.371,17.877,15.424,29.267C486,187.333,486,190.667,486,194z"/>
	<path d="M214.028,234.217c0.656,2.301,1.788,4.67,1.88,7.078c0.079,2.069-0.416,5.129-1.784,6.021
		c-1.442,0.94-4.585,0.487-6.355-0.493c-8.732-4.84-8.517-10.21-4.036-19.211c5.13-10.304,13.824-15.862,22.602-21.434
		c14.041-8.912,29.267-9.009,42.999-0.137c12.9,8.335,24.68,18.493,36.502,28.388c14.646,12.26,28.441,25.564,43.398,37.415
		c6.19,4.904,14.17,8.082,21.828,10.471c9.305,2.901,18.002,0.074,24.07-7.823c3.653-4.755,6.264-10.31,9.884-16.421
		c-17.438,0-33.245,0.033-49.055-0.02c-4.969-0.017-7.511-2.697-6.046-7.203c0.623-1.916,3.576-3.114,5.544-4.537
		c1.196-0.865,3.244-1.239,3.702-2.338c8.179-19.615,22.834-30.961,43.594-34.446c0.478-7.514,2.043-9.74,6.573-9.551
		c4.234,0.178,5.646,2.393,5.806,9.408c12.67,1.662,24.244,6.278,32.855,15.989c4.66,5.254,7.824,11.817,11.867,17.648
		c0.956,1.379,2.603,2.816,4.155,3.137c3.824,0.788,6.262,2.58,5.923,6.613c-0.313,3.767-2.851,5.324-6.557,5.313
		c-12.163-0.04-24.326-0.014-36.489-0.014c-1.803,0-3.604,0-5.098,0c-1.512,8.619-2.613,16.814-4.422,24.852
		c-5.097,22.658-29.513,34.021-47.787,33.12c-10.5-0.517-20.192-3.825-29.463-8.557c-9.704-4.954-19.832-8.665-30.724-9.716
		c-8.652-0.834-16.48,1.027-22.617,8.956c4.102,0.325,7.664,0.326,11.121,0.933c13.373,2.34,24.375,9.704,34.815,17.672
		c14.25,10.873,29.722,18.948,47.248,22.673c2.647,0.563,4.199,4.925,7.461,2.289c4.205-3.398,8.604-6.707,12.129-10.744
		c2.306-2.639,3.169-6.521,4.762-9.806c0.755-1.561,1.704-3.025,2.88-5.084c3.67,4.75,2.762,9.377,2.369,13.867
		c-0.857,9.813-5.774,17.479-12.75,24.118c-5.371,5.112-10.312,10.56-9.447,19.991c-3.719-2.62-6.602-4.651-9.485-6.685
		c-0.028,0.377-0.059,0.753-0.089,1.13c-2.368,0-5.072,0.757-7.053-0.12c-15.338-6.798-30.62-13.735-45.748-20.987
		c-10.947-5.246-21.607-11.088-32.441-16.573c-8.15-4.128-16.051-3.4-23.595,1.644c-8.437,5.639-17.181,10.877-25.221,17.033
		c-23.968,18.352-49.697,18.6-76.31,7.605c-8.845-3.652-16.991-9.033-25.328-13.849c-1.498-0.865-2.366-2.82-3.91-4.755
		c-12.07,3.363-15.55,15.056-20.28,25.646c-0.616-0.163-1.231-0.325-1.848-0.489c-0.446-2.09-1.142-4.16-1.299-6.271
		c-0.915-12.305,3.801-22.324,12.553-30.749c2.5-2.407,5.072-4.96,6.762-7.93c1.815-3.188,2.631-6.945,4.206-11.358
		c3.115,2.339,6.662,5.003,9.513,7.146c2.526,0.409,4.732,0.171,6.206,1.097c24.851,15.617,46.67,11.386,68.026-6.914
		c14.463-12.395,24.932-28.021,34.96-43.959c2.824-4.492,5.828-8.961,7.945-13.794c7.115-16.243-3.699-33.289-14.647-39.542
		c-8.913-5.09-17.142-1.979-24.556,3.636C221.59,226.729,217.992,230.578,214.028,234.217z M403.583,214.228
		c-16.708,0.251-34.649,16.97-37.301,33.53c5.614,1.363,6.688,1.195,7.704-1.961C378.688,231.19,388.158,220.955,403.583,214.228z"
		/>
	<path d="M296.887,134.716c4.234-8.785,11.646-13.272,19.051-11.726c8.065,1.686,13.893,9.351,13.804,20.074
		c-0.056,6.709-1.64,13.448-2.985,20.082c-0.533,2.631-0.672,4.487,1.171,6.768c4.144,5.122,7.978,9.569,14.994,11.902
		c14.692,4.886,22.177,20.323,19.052,35.798c-2.785,13.79-15.291,23.854-28.953,24.576c-16.256,0.86-29.879-10.273-32.574-25.001
		c-1.426-7.805-0.573-15.53,2.854-23.107c-0.939,1.302-1.904,2.586-2.813,3.91c-1.032,1.506-2.014,3.047-3.445,5.225
		c-2.643-4.086-5.311-7.793-7.508-11.762c-1.395-2.521-3.064-3.285-5.891-3.398c-15.863-0.637-24.263-11.934-22.199-27.601
		c2.597-19.722,15.219-26.868,34.623-23.12c3.064,0.592,6.058,1.563,9.514,1.45C302.791,137.48,300.004,136.176,296.887,134.716z"/>
</g>
</svg>
