<?xml version="1.0" encoding="utf-8"?>
<!-- Generator: Adobe Illustrator 16.0.0, SVG Export Plug-In . SVG Version: 6.00 Build 0)  -->
<!DOCTYPE svg PUBLIC "-//W3C//DTD SVG 1.1//EN" "http://www.w3.org/Graphics/SVG/1.1/DTD/svg11.dtd">
<svg version="1.1" id="Layer_1_xA0_Image_1_" xmlns="http://www.w3.org/2000/svg" xmlns:xlink="http://www.w3.org/1999/xlink"
	 x="0px" y="0px" width="500px" height="500px" viewBox="0 0 500 500" enable-background="new 0 0 500 500" xml:space="preserve">
<g>
	<path fill-rule="evenodd" clip-rule="evenodd" d="M262.715,96.147c56.823,0,113.646-0.021,170.469,0.016
		c13.835,0.009,23.675,9.77,21.402,22.156c-0.866,4.717-3.802,9.685-7.184,13.202c-15.354,15.977-31.215,31.465-46.872,47.15
		c-27.898,27.951-55.742,55.957-83.731,83.816c-2.805,2.793-4.053,5.5-4.036,9.521c0.157,37.327,0.095,74.655,0.091,111.982
		c0,1.5,0.113,3.019-0.085,4.494c-0.568,4.217-4.085,7.429-8.178,7.325c-4.38-0.109-7.147-2.536-8.189-6.716
		c-0.394-1.58-0.248-3.308-0.249-4.968c-0.011-39.16,0.055-78.319-0.089-117.479c-0.019-4.875,1.449-8.47,4.905-11.918
		c44.352-44.254,88.594-88.618,132.859-132.959c1.175-1.177,2.532-2.257,3.402-3.637c1.752-2.777,1.212-4.786-2.434-5.108
		c-1.158-0.102-2.332-0.026-3.498-0.026c-112.146,0-224.292,0-336.438,0.001c-1.333,0-2.684-0.119-3.996,0.053
		c-3.303,0.433-3.779,2.433-2.239,4.949c0.848,1.386,2.234,2.451,3.409,3.628c44.265,44.342,88.5,88.713,132.865,132.953
		c3.604,3.595,5.05,7.32,5.038,12.36c-0.13,55.656-0.082,111.313-0.083,166.969c0,1.333,0.1,2.68-0.052,3.996
		c-0.513,4.466-4.149,7.886-8.285,7.901c-4.417,0.018-8.007-3.521-8.35-8.296c-0.095-1.327-0.024-2.666-0.024-3.999
		c0-53.989-0.038-107.979,0.082-161.97c0.008-3.649-1.092-6.133-3.643-8.68c-43.636-43.555-87.162-87.221-130.766-130.808
		c-5.775-5.773-9.259-12.234-7.258-20.587c2.345-9.792,10.058-15.313,21.188-15.317c43.659-0.018,87.317-0.007,130.976-0.007
		C236.72,96.147,249.718,96.147,262.715,96.147z"/>
</g>
</svg>
