<?xml version="1.0" encoding="utf-8"?>
<!-- Generator: Adobe Illustrator 16.0.0, SVG Export Plug-In . SVG Version: 6.00 Build 0)  -->
<!DOCTYPE svg PUBLIC "-//W3C//DTD SVG 1.1//EN" "http://www.w3.org/Graphics/SVG/1.1/DTD/svg11.dtd">
<svg version="1.1" id="Layer_1_xA0_Image_1_" xmlns="http://www.w3.org/2000/svg" xmlns:xlink="http://www.w3.org/1999/xlink"
	 x="0px" y="0px" width="500px" height="500px" viewBox="0 0 500 500" enable-background="new 0 0 500 500" xml:space="preserve">
<g>
	<path d="M335.295,317.022c6.596,16.676,12.969,32.18,18.823,47.876c2.491,6.679,0.979,9.479-5.563,12.832
		c-10.01,5.13-20.906,6.95-31.945,6.765c-38.946-0.656-77.89-1.567-116.824-2.718c-7.091-0.209-14.253-1.508-21.17-3.181
		c-7.656-1.851-9.821-6.115-7.092-13.499c5.073-13.723,10.584-27.283,15.906-40.915c0.299-0.767,0.532-1.559,0.918-2.699
		c-5.278-2.52-10.439-5.104-15.699-7.471c-24.346-10.946-42.079-28.44-51.708-53.433c-3.718-9.648-8.888-14.209-19.91-12.846
		c-9.69,1.199-19.616-0.091-28.804-4.346c-6.277-2.908-10.065-7.497-10.213-14.633c-0.149-7.199,3.546-12.359,9.821-14.847
		c6.04-2.394,12.622-3.419,19.442-5.168c-1.338-3.099-3.195-6.947-4.679-10.936c-2.546-6.845-5.339-13.652-7.14-20.703
		c-1.949-7.63,0.487-10.5,8.394-10.704c24.962-0.646,49.926-1.317,74.893-1.591c54.288-0.594,108.578-1.232,162.867-1.292
		c32.793-0.036,65.588,0.934,98.379,1.579c4.301,0.085,8.65,0.627,12.867,1.5c7.03,1.457,8.523,3.425,8.985,10.474
		c0.109,1.66,0.153,3.329,0.143,4.993c-0.042,6.559-2.813,11.595-9.361,13.077c-9.869,2.233-13.312,10.24-17.276,17.862
		c-1.344,2.583-0.874,4.271,2.653,5.363c4.183,1.295,8.321,3.464,11.794,6.143c4.431,3.417,4.849,8.508,1.17,12.793
		c-7.106,8.277-15.687,14.316-26.95,15.647c-1.271,0.15-3.111,0.771-3.571,1.718c-11.934,24.538-33.062,39.497-55.274,53.338
		c-3.389,2.111-6.905,4.021-10.271,6.167C337.256,315.217,335.826,316.595,335.295,317.022z M102.792,188.771
		c0.048,0.949-0.194,2.208,0.209,3.205c4.68,11.552,9.321,23.125,14.377,34.513c0.661,1.489,3.51,2.562,5.477,2.817
		c6.72,0.873,13.61,0.739,20.217,2.073c4.955,1,6.291,4.658,4.721,9.232c-1.617,4.713-5.668,5.65-9.919,6.276
		c-5.003,0.737-5.888,1.946-3.96,6.548c1.335,3.188,3.019,6.371,5.177,9.047c16.842,20.893,37.834,35.904,63.683,43.576
		c17.895,5.313,36.446,5.653,54.921,6.314c23.519,0.842,46.654-1.07,68.559-10.462c22.916-9.825,43.854-22.501,58.848-43.177
		c1.603-2.209,2.905-4.635,4.967-7.957c-4.315-0.303-7.403-0.621-10.5-0.712c-3.82-0.113-7.722,0.403-11.441-0.221
		c-2.008-0.337-5.096-2.347-5.246-3.848c-0.26-2.588,0.928-5.672,2.417-7.953c0.886-1.356,3.474-2.072,5.36-2.212
		c5.119-0.378,10.294-0.622,15.41-0.316c7.64,0.456,15.24,1.493,22.868,2.161c5.522,0.483,8.021-1.357,8.689-6.324
		c-7.386-1.037-14.807-1.905-22.144-3.232c-1.813-0.328-4.758-2.191-4.725-3.273c0.063-2.004,1.596-4.312,3.169-5.806
		c1.155-1.098,3.405-0.966,5.068-1.63c1.655-0.66,3.686-1.241,4.689-2.528c5.012-6.42,9.767-13.041,14.546-19.638
		c1.194-1.647,2.15-3.466,3.993-6.476C315.034,188.771,209.217,188.771,102.792,188.771z M277.639,368.999
		c11.896,0,22.229,0.378,32.519-0.129c7.252-0.356,14.513-1.593,21.637-3.073c3.577-0.744,6.567-3.29,4.653-7.721
		c-3.823-8.846-7.86-17.602-11.872-26.363c-2.611-5.706-6.701-7.624-13.222-6.673c-34.274,4.997-68.668,2.137-103.04,1.112
		c-2.283-0.068-5.633,1.7-6.772,3.629c-3.446,5.833-6.473,12.003-8.886,18.338c-4.504,11.828-3.217,13.856,9.417,14.928
		C227.759,365.221,253.469,367.111,277.639,368.999z M92.194,233.073c0.017-0.104,0.034-0.208,0.051-0.313
		c0.993,0,1.987,0.027,2.979-0.005c5.673-0.183,6.851-2.308,3.955-7.115c-2.496-4.143-14.575-4.064-17.054,0.195
		c-1.612,2.77-0.452,4.984,2.312,5.899C86.9,232.551,89.599,232.655,92.194,233.073z"/>
	<path d="M200.85,250.246c0.075-3.502,3.95-6.555,8.139-6.41c4.317,0.148,8.085,3.878,8.002,7.921
		c-0.082,3.996-3.742,8.354-7.076,8.425C206.348,260.257,200.766,254.139,200.85,250.246z"/>
	<path d="M312.539,275.989c-3.666-0.138-6.967-3.623-6.744-7.122c0.24-3.79,4.189-7.168,8.223-7.033
		c3.607,0.121,6.881,3.244,6.847,6.529C320.82,272.2,316.521,276.141,312.539,275.989z"/>
	<path d="M333.818,278.973c-0.164,0-0.36,0.06-0.49-0.009c-2.688-1.407-5.621-2.528-7.883-4.442
		c-0.631-0.533,0.242-3.81,1.289-5.155c2.314-2.981,5.617-3.123,8.973-1.661c2.768,1.205,6.863,1.697,6.023,5.861
		C340.975,277.316,337.666,278.925,333.818,278.973z"/>
	<path d="M185.823,257.275c5.75-0.23,11.338,3.678,11.501,6.813c0.156,2.993-4.638,8.047-7.622,8.034
		c-3.015-0.014-6.697-4.479-6.417-8.805C183.434,261.021,185.133,258.824,185.823,257.275z"/>
	<path d="M188.824,245.805c-4.323-0.883-8.467-4.488-8.665-7.592c-0.206-3.241,3.472-6.824,7.168-6.982
		c3.509-0.15,8.816,4.392,7.721,7.475C194.07,241.461,190.981,243.468,188.824,245.805z"/>
	<path d="M289.006,276.781c-5.554,0.117-8.994-2.17-8.852-5.895c0.119-3.121,0.568-6.562,4.715-6.988
		c4.215-0.434,9.455,3,8.955,5.955C293.305,272.932,293.193,276.844,289.006,276.781z"/>
	<path d="M202.713,226.491c0.303-3.816,1.521-6.879,5.566-7.21c3.742-0.307,7.73,3.601,7.697,6.993
		c-0.032,3.234-3.864,6.946-7.312,6.729C204.603,232.749,203.344,229.742,202.713,226.491z"/>
	<path d="M236.579,240.586c-0.012,2.898-2.137,5.859-5.247,4.903c-3.144-0.968-6.281-3.832-8.072-6.705
		c-1.347-2.162,2.965-5.751,6.472-5.831C233.494,232.867,236.459,235.891,236.579,240.586z"/>
	<path d="M299.119,243.58c4.447-0.773,5.457,2.011,5.75,5.544c0.32,3.869-1.438,6.274-5.313,6.252
		c-3.393-0.021-7.428,0.16-8.072-4.71C290.941,246.564,293.932,243.895,299.119,243.58z"/>
	<path d="M230.516,255.791c3.71,0.098,6.566,2.986,6.44,6.721c-0.106,3.148-1.331,5.481-4.984,5.448
		c-3.587-0.033-8.705-4.083-8.762-6.885C223.156,258.327,226.797,255.693,230.516,255.791z"/>
	<path d="M206.434,273.914c0.676-0.553,1.869-2.273,3.356-2.585c2.99-0.624,9.17,4.808,8.387,7.528
		c-0.53,1.843-2.828,4.05-4.687,4.444C210.112,284.021,206.525,279.462,206.434,273.914z"/>
	<path d="M268.424,236.177c-3.271,0.046-7.843-3.475-6.771-5.676c0.996-2.045,3.707-4.102,5.943-4.476
		c2.588-0.433,6.401-0.139,6.531,4.099C274.238,233.788,272.238,235.958,268.424,236.177z"/>
	<path d="M257.365,224.192c-1.096,0.825-3,3.265-5.321,3.762c-3.091,0.661-5.402-1.373-5.042-5.004
		c0.283-2.849,0.796-5.808,4.607-5.835C254.973,217.091,257.463,218.318,257.365,224.192z"/>
	<path d="M297.244,283.716c2.293,1.554,3.971,2.69,5.648,3.828c-1.572,2.304-3.146,4.606-4.718,6.909
		c-2.429-2.227-4.856-4.45-7.286-6.676C292.828,286.538,294.768,285.299,297.244,283.716z"/>
	<path d="M281.352,214.479c-2.99,1.973-2.572,8.632-8.203,5.252c-1.621-0.973-3.073-4.607-2.506-6.332
		C271.721,210.121,276.5,210.584,281.352,214.479z"/>
	<path d="M240.239,285.055c2.372,2.198,4.029,3.734,5.687,5.271c-1.638,1.55-3.361,4.424-4.892,4.324
		c-2.018-0.131-3.886-2.594-5.818-4.055C236.645,289.02,238.075,287.441,240.239,285.055z"/>
	<path d="M357.813,225.72c-3.256,2.491-5.056,4.821-7.156,5.138c-1.385,0.207-3.205-2.486-4.831-3.881
		c2.045-1.197,3.975-2.788,6.18-3.43C353.168,223.208,354.814,224.524,357.813,225.72z"/>
	<path d="M174.864,219.436c-1.742,0.84-3.891,2.745-5.128,2.271c-1.851-0.71-3.061-3.093-4.543-4.764
		c1.174-0.978,2.596-2.955,3.473-2.737c2.246,0.557,4.25,2.091,6.35,3.233C174.964,218.105,174.914,218.771,174.864,219.436z"/>
	<path d="M287.52,231.179c-0.5,2.176-0.467,5.776-1.615,6.205c-1.907,0.71-4.635-0.444-6.879-1.215
		c-0.561-0.192-1.021-2.703-0.807-2.821c2.51-1.365,5.158-2.477,7.77-3.655C286.498,230.188,287.008,230.684,287.52,231.179z"/>
	<path d="M258.491,273.057c1.604,2.209,3.45,3.641,3.468,5.092c0.016,1.406-2.539,4.17-2.785,4.043
		c-2.355-1.211-4.463-2.907-6.641-4.467C254.203,276.416,255.873,275.107,258.491,273.057z"/>
	<path d="M263.59,303.264c-1.96-2.076-3.326-3.523-4.693-4.973c1.734-1.158,3.506-3.268,5.193-3.2
		c1.592,0.062,3.092,2.413,4.633,3.759C267.287,300.083,265.854,301.316,263.59,303.264z"/>
	<path d="M317.445,251.469c3.822-3.81,6.937-3.623,9.58-0.391c0.719,0.879,0.67,3.771,0.025,4.154
		C322.578,257.909,320.852,253.498,317.445,251.469z"/>
	<path d="M323.641,231.768c2.391-4.209,5.594-4.139,8.815-1.996c0.835,0.555,1.261,3.625,0.769,3.973
		C329.523,236.355,326.594,234.279,323.641,231.768z"/>
	<path d="M265.725,251.225c-2.146-2.182-4.66-3.661-4.543-4.891c0.146-1.521,2.414-3.857,3.875-3.941
		c1.369-0.079,3.588,2.103,4.08,3.704C269.455,247.136,267.346,248.92,265.725,251.225z"/>
	<path d="M255.273,261.619c1.906,1.779,3.201,2.988,4.496,4.197c-1.49,0.916-3.097,2.701-4.441,2.522
		c-1.563-0.207-2.896-2.136-4.329-3.317C252.201,264.064,253.404,263.107,255.273,261.619z"/>
	<path d="M321.123,286.327c0.186,4.416-2.598,5.569-5.969,5.603c-0.791,0.008-2.465-2.052-2.256-2.611
		C314.375,285.352,317.523,285.354,321.123,286.327z"/>
</g>
</svg>
