<?xml version="1.0" encoding="utf-8"?>
<!-- Generator: Adobe Illustrator 16.0.0, SVG Export Plug-In . SVG Version: 6.00 Build 0)  -->
<!DOCTYPE svg PUBLIC "-//W3C//DTD SVG 1.1//EN" "http://www.w3.org/Graphics/SVG/1.1/DTD/svg11.dtd">
<svg version="1.1" id="Layer_1" xmlns="http://www.w3.org/2000/svg" xmlns:xlink="http://www.w3.org/1999/xlink" x="0px" y="0px"
	 width="290.12px" height="384.095px" viewBox="0 0 290.12 384.095" enable-background="new 0 0 290.12 384.095"
	 xml:space="preserve">
<g>
	<path fill-rule="evenodd" clip-rule="evenodd" fill="#010002" d="M212.739,163.32c-10.206,9.772-21.663,16.826-35.332,19.837
		c-15.103,3.327-30.045,3.142-44.59-2.587c-1.767-0.695-2.866-0.102-4.163,0.419c-9.244,3.711-19.248,6.274-27.455,11.599
		c-7.107,4.611-13.562,3.152-20.511,2.597c-16.915-1.354-33.812-2.937-50.732-4.216c-3.181-0.24-4.188-0.984-3.957-4.402
		c0.678-10.036,0.478-9.888,10.195-8.971c20.534,1.938,41.089,3.656,61.625,5.581c1.679,0.158,2.886-0.543,4.219-1.075
		c7.399-2.956,14.728-6.093,22.172-8.93c2.332-0.888,3.178-2.169,3.609-4.574c1.785-9.958,8.932-14.787,18.871-12.539
		c24.097,5.449,41.771-4.301,53.691-22.178c1.225-1.835,2.036-3.761,2.659-5.849c5.311-17.771,28.115-26.476,43.987-16.832
		c2.898,1.762,5.206,4.095,7.08,6.911c23.55,35.367,36.663,73.937,35.988,116.777c-0.095,5.995-1.574,11.453-5.005,16.418
		c-22.78,32.969-30.431,69.205-23.507,108.632c1.887,10.749-5.575,21.113-16.694,23.678c-10.288,2.372-21.414-4.27-24.186-15.066
		c-2.612-10.18-3.475-20.683-3.362-31.172c0.048-4.459-1.063-5.936-5.678-5.648c-7.158,0.445-7.271,0.127-7.158-7.173
		c0.214-13.98-0.719-27.982,0.487-41.942c1.493-17.291,9.593-30.896,23.696-40.884c2.156-1.526,2.809-2.864,2.653-5.598
		c-0.981-17.295-2.02-34.538-8.215-50.993C220.316,177.667,217.131,170.399,212.739,163.32z"/>
	<path fill-rule="evenodd" clip-rule="evenodd" fill="#010002" d="M60.656,265.086c18.983,0,37.967,0.088,56.948-0.083
		c3.348-0.03,4.161,0.953,4.152,4.176c-0.102,36.967-0.098,73.934-0.002,110.899c0.008,2.953-0.581,3.98-3.793,3.971
		c-38.132-0.118-76.264-0.108-114.396-0.012c-2.863,0.007-3.549-0.823-3.542-3.603C0.112,343.303,0.131,306.169,0,269.037
		c-0.012-3.413,1.087-4.04,4.208-4.018C23.023,265.155,41.84,265.086,60.656,265.086z"/>
	<path fill-rule="evenodd" clip-rule="evenodd" fill="#010002" d="M169.125,9.452c2.42,1.098,3.625-0.65,5.177-2.667
		c5.308-6.901,14.96-8.718,22.958-4.619c7.893,4.044,11.987,12.552,9.461,20.894c-0.868,2.865-0.572,4.988,0.723,7.447
		c6.179,11.729,12.2,23.541,18.425,35.246c1.258,2.365,1.41,3.482-1.439,4.738c-11.218,4.942-22.364,10.06-33.401,15.393
		c-2.855,1.379-3.24-0.185-4.179-2.013c-6.058-11.793-12.255-23.516-18.22-35.356c-1.213-2.409-2.682-3.669-5.294-4.466
		c-9.092-2.774-14.631-11.667-13.029-20.331C151.886,15.167,159.471,9.288,169.125,9.452z"/>
	<path fill-rule="evenodd" clip-rule="evenodd" fill="#010002" d="M51.374,160.829c-1.83,0-3.681,0.187-5.483-0.036
		c-4.597-0.568-7.651-4.245-7.644-8.951c0.007-4.794,2.928-8.496,7.664-8.782c5.458-0.33,10.959-0.237,16.427,0.004
		c4.807,0.212,9.192-0.828,13.415-3.031c4.445-2.318,9.228-3.71,14.145-4.587c3.993-0.712,7.704-0.545,9.564,4.002
		c2.046,5.001,0.854,9.514-3.57,12.124c-5.358,3.161-11.397,4.464-17.4,5.733c-4.545,0.961-9.114,1.864-13.713,2.491
		c-4.437,0.605-8.926,0.823-13.392,1.211C51.382,160.948,51.378,160.888,51.374,160.829z"/>
	<path fill-rule="evenodd" clip-rule="evenodd" fill="#010002" d="M233.311,82.836c0.031,10.376-6.878,19.371-16.929,22.05
		c-10.323,2.75-22.724-2.062-27.545-10.427c-1.117-1.938-0.529-2.574,1.058-3.301c12.831-5.877,25.676-11.725,38.467-17.687
		c2.059-0.96,2.983-0.448,3.619,1.54C232.796,77.564,233.456,80.128,233.311,82.836z"/>
	<path fill-rule="evenodd" clip-rule="evenodd" fill="#8A8A8A" d="M48.78,119.25c0.12,1.004-0.36,1.636-1.319,1.693
		c-0.706,0.043-1.199-0.399-1.256-1.211c-0.069-0.969,0.274-1.689,1.28-1.715C48.16,118,48.708,118.463,48.78,119.25z"/>
	<path fill-rule="evenodd" clip-rule="evenodd" fill="#212022" d="M85.299,128.05c-1.143-0.135-1.328-0.715-1.208-1.417
		c0.111-0.646,0.304-1.369,1.166-1.285c0.855,0.084,0.819,0.864,0.868,1.472C86.186,127.581,85.802,128.019,85.299,128.05z"/>
	<path fill-rule="evenodd" clip-rule="evenodd" fill="#464546" d="M106.997,144.191c-0.167,0.86-0.776,0.939-1.476,0.828
		c-0.824-0.132-1.105-0.805-1.026-1.447c0.032-0.259,0.806-0.607,1.233-0.596C106.399,142.995,106.998,143.35,106.997,144.191z"/>
	<path fill-rule="evenodd" clip-rule="evenodd" fill="#39393A" d="M72.378,136.903c-0.737-0.169-1.209-0.702-0.833-1.326
		c0.229-0.379,1.02-0.525,1.568-0.55c0.2-0.01,0.617,0.639,0.609,0.979C73.704,136.816,73.022,136.896,72.378,136.903z"/>
	<path fill-rule="evenodd" clip-rule="evenodd" fill="#2B2A2C" d="M33.043,156.094c-0.802,0.119-1.131-0.355-1.356-1.023
		c-0.231-0.686,0.284-0.848,0.703-0.996c0.678-0.238,1.369-0.056,1.581,0.634C34.176,155.375,33.81,155.941,33.043,156.094z"/>
</g>
</svg>
