<?xml version="1.0" encoding="utf-8"?>
<!-- Generator: Adobe Illustrator 16.0.0, SVG Export Plug-In . SVG Version: 6.00 Build 0)  -->
<!DOCTYPE svg PUBLIC "-//W3C//DTD SVG 1.1//EN" "http://www.w3.org/Graphics/SVG/1.1/DTD/svg11.dtd">
<svg version="1.1" id="Layer_1_xA0_Image_1_" xmlns="http://www.w3.org/2000/svg" xmlns:xlink="http://www.w3.org/1999/xlink"
	 x="0px" y="0px" width="500px" height="500px" viewBox="0 0 500 500" enable-background="new 0 0 500 500" xml:space="preserve">
<g>
	<path fill-rule="evenodd" clip-rule="evenodd" d="M371,465c-15.188-17.023-30.633-33.826-45.486-51.137
		c-13.574-15.82-22.07-33.8-21.574-55.364c0.705-30.561,25.512-58.683,55.528-63.651c36.733-6.081,72.158,17.916,78.204,56.102
		c2.056,12.981-0.317,25.419-6.26,37.259c-7.174,14.296-17.49,26.273-27.606,38.406c-9.813,11.769-19.818,23.377-29.704,35.086
		c-0.834,0.987-1.407,2.194-2.102,3.3C371.667,465,371.333,465,371,465z M404.116,362.423c0.022-18.289-14.556-33.119-32.716-33.28
		c-18.072-0.16-33.415,15.179-33.359,33.354c0.055,18.05,15.031,32.869,33.19,32.843
		C389.703,395.313,404.094,380.908,404.116,362.423z"/>
	<path fill-rule="evenodd" clip-rule="evenodd" d="M32,313c0.669-2.697,1.277-5.41,2.016-8.088
		c5.847-21.193,27.584-34.695,49.523-30.786c21.522,3.836,37.595,24.066,35.167,45.754c-0.765,6.828-4.335,13.466-7.3,19.877
		c-1.784,3.858-4.677,7.276-7.421,10.604c-9.207,11.165-18.571,22.2-28.316,33.811c-12.955-15.268-28.043-28.126-37.578-45.496
		C35.135,333.291,33.979,326.919,32,321C32,318.333,32,315.667,32,313z M75.536,338.995c11.805,0.055,21.36-9.25,21.46-20.896
		c0.103-12.064-9.105-21.607-21.116-21.883c-11.258-0.259-21.388,9.592-21.647,21.05C53.969,328.976,63.737,338.94,75.536,338.995z"
		/>
	<path fill-rule="evenodd" clip-rule="evenodd" d="M274,60c8.811,3.015,15.533,7.993,17.163,17.921
		c1.833,11.166-4.72,21.316-15.692,24.175c-10.809,2.815-21.74-3.034-25.449-13.617c-3.684-10.508,1.313-21.944,11.58-26.513
		c1.468-0.652,2.933-1.311,4.398-1.966C268.666,60,271.334,60,274,60z"/>
	<path fill-rule="evenodd" clip-rule="evenodd" d="M282.962,310.002c-1.796,0-3.108,0-4.421,0c-6.648,0-13.298,0-20.443,0
		c-1.723-11.834-3.43-23.445-5.1-35.062c-2.813-19.566-5.542-39.145-8.476-58.692c-0.381-2.539-1.564-5.032-2.742-7.362
		c-3.221-6.376-6.527-12.714-10-18.955c-6.02-10.818-6.634-22.417-5.49-34.373c0.983-10.271,2.015-20.55,2.489-30.851
		c0.252-5.488,2.671-9.015,7.567-10.424c6.677-1.922,13.483-4.004,20.348-4.534c15.095-1.165,30.265-1.437,44.972,3.393
		c6.669,2.189,10.483,5.181,10.523,14.106c0.051,11.465,1.055,22.958,2.262,34.373c0.709,6.712-0.265,12.914-2.845,18.962
		c-2.864,6.716-5.325,13.702-9.023,19.941c-5.713,9.636-7.101,20.198-8.579,30.886C290.406,257.412,286.707,283.399,282.962,310.002
		z"/>
	<path fill-rule="evenodd" clip-rule="evenodd" d="M290.612,352.872c0.79,8.354,1.565,16.561,2.438,25.789
		c-61.111,1.061-121.758-2.438-180.86-20.772c5.518-8.569,10.701-16.618,15.958-24.781
		C180.712,351.26,235.589,353.095,290.612,352.872z"/>
	<path fill-rule="evenodd" clip-rule="evenodd" d="M450.576,348.773c-2.006-12.39-6.005-22.808-12.456-32.271
		c-0.681-0.999-1.156-2.505-0.98-3.662c1.043-6.889-2.434-11.507-7.538-15.189c-11.591-8.363-25.114-11.794-38.792-14.607
		c-26.987-5.551-54.342-7.145-81.824-7.175c-1.981-0.003-3.962-0.001-6.628-0.001c1.057-3.14,1.627-5.92,2.94-8.288
		c0.674-1.216,2.696-2.438,4.071-2.396c17.299,0.514,34.631,0.738,51.874,2.069c23.014,1.776,45.905,4.812,68.053,11.76
		c13.699,4.298,27.071,9.409,37.347,20.039c11.939,12.352,13.84,28.35-2.573,40.6C459.979,342.704,455.61,345.387,450.576,348.773z"
		/>
	<path fill-rule="evenodd" clip-rule="evenodd" d="M237.975,276.544c-37.596,0.802-74.016,5.695-109.693,16.201
		c-2.288-4.139-4.526-8.188-7.21-13.045c7.202-1.892,14.23-4.032,21.388-5.566c27.888-5.976,56.113-8.866,84.639-9.324
		c5.569-0.09,8.799,1.056,9.51,6.854C236.785,273.103,237.385,274.489,237.975,276.544z"/>
	<path fill-rule="evenodd" clip-rule="evenodd" d="M361.007,255.741c-5.229-6.147-10.134-11.183-14.185-16.829
		c-7.977-11.118-3.361-25.314,9.048-28.974c7.075-2.087,14.796,0.301,19.233,5.947c4.69,5.97,5.595,13.403,1.258,19.939
		C371.896,242.557,366.512,248.681,361.007,255.741z M369.968,227.499c-0.086-4.88-4.038-8.707-8.995-8.709
		c-5.209-0.002-9.174,4.055-8.963,9.171c0.198,4.822,4.363,8.721,9.182,8.595C365.938,236.432,370.05,232.188,369.968,227.499z"/>
	<path fill-rule="evenodd" clip-rule="evenodd" d="M183.59,255.77c-5.511-6.931-11.13-12.895-15.414-19.699
		c-4.129-6.559-3.311-13.83,1.541-20.025c4.299-5.49,10.262-7.972,17.196-6.661c7.681,1.452,12.663,6.187,14.652,13.856
		c1.567,6.039-0.693,11.171-4.217,15.766C193.211,244.397,188.737,249.531,183.59,255.77z M192.946,227.69
		c0.072-4.702-4.018-8.819-8.841-8.901c-5.141-0.087-8.943,3.45-9.1,8.465c-0.161,5.122,3.863,9.315,8.93,9.306
		C188.636,236.551,192.875,232.379,192.946,227.69z"/>
</g>
</svg>
