<?xml version="1.0" encoding="utf-8"?>
<!-- Generator: Adobe Illustrator 16.0.0, SVG Export Plug-In . SVG Version: 6.00 Build 0)  -->
<!DOCTYPE svg PUBLIC "-//W3C//DTD SVG 1.1//EN" "http://www.w3.org/Graphics/SVG/1.1/DTD/svg11.dtd">
<svg version="1.1" id="Layer_1" xmlns="http://www.w3.org/2000/svg" xmlns:xlink="http://www.w3.org/1999/xlink" x="0px" y="0px"
	 width="328.132px" height="385.698px" viewBox="0 0 328.132 385.698" enable-background="new 0 0 328.132 385.698"
	 xml:space="preserve">
<g>
	<path fill-rule="evenodd" clip-rule="evenodd" fill="#FE8E00" d="M0,207.835c1.297-10.54,2.782-22.261,4.166-33.995
		c0.789-6.691,1.375-13.406,2.119-20.102c1.287-11.577,2.794-23.133,3.869-34.729c0.515-5.556,0.739-11.115,2.021-16.583
		c4.162-17.75,15.935-28.187,32.8-32.963c6.527-1.848,13.628-2.009,20.491-2.22c4.653-0.144,6.274-2.145,6.844-6.359
		c2.234-16.521,4.562-33.03,7.024-49.519C80.369,4.434,87.979-1.061,94.32,0.174c8.869,1.729,13.497,9.299,11.859,18.296
		c-1.93,10.603-3.312,21.305-4.909,31.968c-0.461,3.073-0.304,6.368-1.401,9.182c-1.416,3.633,0.381,3.755,2.845,3.46
		c10.062-1.204,20.113-2.494,30.164-3.792c19.011-2.458,37.487-2.302,53.342,10.795c1.53,1.265,3.047,2.562,4.45,3.964
		c41.827,41.803,83.549,83.712,125.505,125.386c14.882,14.781,16.178,40.061,2.173,55.243c-3.134,3.397-6.2,6.877-9.468,10.149
		c-35.666,35.713-71.325,71.434-107.096,107.044c-5.944,5.918-12.541,10.897-21.186,12.686
		c-14.313,2.961-26.961,0.372-37.496-10.154c-42.303-42.271-84.525-84.621-126.901-126.816C5.44,236.87,1.057,223.78,0,207.835z"/>
	<path fill-rule="evenodd" clip-rule="evenodd" fill="#FEFEFE" d="M95.564,89.335c2.252-10.964,2.267-10.859,11.975-12.264
		c11.843-1.714,23.84-2.313,35.615-4.183c12.442-1.976,22.943,1.194,32.923,8.066c1.398,0.963,2.565,2.077,3.719,3.23
		c41.843,41.807,83.654,83.645,125.495,125.452c10.881,10.872,11.699,25.517,0.292,36.835
		c-39.144,38.84-78.203,77.768-116.924,117.026c-10.027,10.167-26.372,9.475-36.002-0.286
		c-41.892-42.46-84.302-84.408-126.357-126.709c-8.966-9.019-12.902-20.036-11.132-33.04c1.438-10.561,1.955-21.244,3.146-31.842
		c1.5-13.328,3.501-26.604,4.843-39.946c0.87-8.644,1.255-17.35,3.137-25.846c2.772-12.517,13.602-21.334,26.426-22.9
		c4.181-0.511,8.498-0.251,12.652-1.646c1.99-0.668,5.266-0.949,3.206,3.304c-0.468,0.965-0.328,2.28-0.292,3.428
		c0.112,3.623-1.187,5.303-5.202,5.207c-4.071-0.097-8.257,0.317-12.228,1.227c-9.642,2.209-13.857,8.304-14.631,19.389
		c-0.801,11.46-2.321,22.852-3.824,34.246c-1.376,10.426-2.09,20.94-3.135,31.41c-1.029,10.305-3.135,20.515-2.963,30.923
		c0.121,7.332,2.727,13.854,7.893,19.033c41.772,41.877,83.617,83.682,125.448,125.5c6.965,6.963,15.221,6.997,22.116,0.104
		c38.298-38.282,76.588-76.572,114.88-114.86c7.959-7.958,7.999-16.051,0.01-24.069c-14.229-14.282-28.506-28.518-42.762-42.772
		c-26.038-26.037-52.344-51.814-77.978-78.243c-9.875-10.183-21.451-12.076-34.35-10.896c-6.82,0.624-13.564,2.039-20.376,2.794
		C112.866,87.93,104.511,88.537,95.564,89.335z"/>
	<path fill-rule="evenodd" clip-rule="evenodd" fill="#FEFEFE" d="M169.454,287.577c-3.858-18.099-7.542-35.286-11.185-52.481
		c-4.152-19.596-8.256-39.201-12.408-58.797c-0.773-3.648-1.661-7.272-2.522-10.902c-0.369-1.556,0.567-2.459,1.526-3.421
		c3.162-3.176,6.292-6.382,9.921-10.073c3.576,16.549,7.087,32.465,10.444,48.413c4.161,19.766,8.177,39.563,12.3,59.338
		c0.797,3.819,1.623,7.648,2.76,11.375c1.091,3.574,0.096,6.037-2.734,8.37C174.883,281.6,172.636,284.318,169.454,287.577z"/>
	<path fill-rule="evenodd" clip-rule="evenodd" fill="#FEFEFE" d="M232.382,217.356c-1.221,11.231-7.364,18.968-17.394,23.765
		c-9.046,4.326-16.821,1.217-23.934-4.651c-7.453-6.147-12.858-13.531-12.759-23.68c0.107-11.017,13.261-24.771,24.207-25.716
		c2.375-0.205,4.545,0.492,6.771,1.025C218.625,190.343,233.201,204.886,232.382,217.356z"/>
	<path fill-rule="evenodd" clip-rule="evenodd" fill="#FEFEFE" d="M117.804,195.998c11.503,0.967,19.153,8.447,25.093,18.223
		c10.384,17.088-6.277,36.954-22.146,37.717c-7.914,0.381-14.42-4.066-19.69-9.643c-18.551-19.632-5.193-40.021,12.126-45.717
		C114.521,196.14,115.775,196.229,117.804,195.998z"/>
	<path fill-rule="evenodd" clip-rule="evenodd" fill="#FEFEFE" d="M64.186,111.375c0.549,7.138-2.134,13.598-1.971,20.39
		c0.221,9.218,3.875,13.894,11.259,14.382c10.435,0.69,14.777-4.653,15.802-13.449c0.606-5.196,1.331-10.378,1.991-15.568
		c0.099-0.781-0.106-1.917,1.021-1.831c0.665,0.052,1.394,0.797,1.881,1.402c11.278,13.974,6.194,32.436-10.496,39.612
		c-11.964,5.145-25.942-2.54-31.065-13.444C46.196,129.226,54.599,116.003,64.186,111.375z"/>
	<path fill-rule="evenodd" clip-rule="evenodd" fill="#FE8E00" d="M209.127,229.09c-8.165,0.002-17.465-8.63-17.873-16.589
		c-0.373-7.285,4.875-12.237,12.084-11.401c7.758,0.9,15.983,10.248,15.912,18.086C219.191,225.687,215.713,229.088,209.127,229.09z
		"/>
	<path fill-rule="evenodd" clip-rule="evenodd" fill="#FE8E00" d="M122.856,238.089c-9.542,0.017-19.098-11.103-17.573-20.45
		c0.902-5.532,7.607-9.082,14.086-7.458c6.05,1.516,13.695,10.909,13.892,17.067C133.479,234.083,129.646,238.077,122.856,238.089z"
		/>
</g>
</svg>
