<?xml version="1.0" encoding="utf-8"?>
<!-- Generator: Adobe Illustrator 16.0.0, SVG Export Plug-In . SVG Version: 6.00 Build 0)  -->
<!DOCTYPE svg PUBLIC "-//W3C//DTD SVG 1.1//EN" "http://www.w3.org/Graphics/SVG/1.1/DTD/svg11.dtd">
<svg version="1.1" id="Layer_12_xA0_Image_1_" xmlns="http://www.w3.org/2000/svg" xmlns:xlink="http://www.w3.org/1999/xlink"
	 x="0px" y="0px" width="500px" height="500px" viewBox="0 0 500 500" enable-background="new 0 0 500 500" xml:space="preserve">
<g>
	<path fill-rule="evenodd" clip-rule="evenodd" d="M430,414c-119.334,0-238.667,0-358,0c-6.006-2.188-10.268-6.266-13-12
		c0-2.667,0-5.333,0-8c0.682-2.206,1.47-4.386,2.031-6.622c6.839-27.268,13.594-54.557,20.495-81.809
		c1.779-7.022,4.326-13.857,1.725-21.272c-0.63-1.795-0.242-3.963-0.243-5.96C82.994,262.351,83,246.365,83,230.379
		c0-34.637,0.05-69.273-0.023-103.909c-0.031-14.485,5.527-25.957,18.146-33.303c4.204-2.446,9.228-3.484,13.877-5.167
		c90.667,0,181.334,0,272,0c25.978,8.875,32,17.436,32,45.487c0,45.124,0.085,90.249-0.082,135.372
		c-0.028,7.76-1.143,15.516-1.724,23.275c-0.06,0.797-0.024,1.642,0.173,2.412c4.974,19.493,9.958,38.985,14.979,58.467
		c3.521,13.67,7.101,27.325,10.654,40.986c0,2.333,0,4.667,0,7C440.972,407.639,436.24,411.574,430,414z M251.391,285.409
		c42.988,0,85.979,0.004,128.967-0.004c6.582-0.001,7.387-0.77,7.39-7.519c0.021-50.154,0.021-100.309-0.001-150.462
		c-0.003-6.588-1.268-7.822-7.934-7.823c-85.812-0.015-171.623-0.015-257.435-0.002c-7.021,0.001-8.127,1.112-8.129,8.124
		c-0.014,49.987-0.016,99.975,0.002,149.962c0.002,7.063,0.701,7.721,7.672,7.722C165.079,285.412,208.235,285.409,251.391,285.409z
		 M250.511,388.407c12.995,0,25.991-0.076,38.985,0.043c4.209,0.039,5.654-1.37,4.795-5.71c-2.036-10.281-3.782-20.621-5.514-30.96
		c-0.578-3.456-2.338-4.614-5.794-4.596c-21.325,0.115-42.652,0.135-63.977-0.013c-3.851-0.027-5.319,1.6-5.901,5.102
		c-1.663,10.014-3.53,19.992-5.242,29.998c-0.931,5.439-0.357,6.108,5.16,6.125C225.52,388.435,238.015,388.408,250.511,388.407z"/>
	<path fill-rule="evenodd" clip-rule="evenodd" d="M259.87,196.202c7.28,7.271,14.116,14.063,20.911,20.897
		c5.063,5.092,4.949,6.37-0.859,12.179c-5.413,5.412-6.803,5.496-11.814,0.513c-6.834-6.796-13.627-13.633-20.868-20.884
		c-1.01,3.501-1.474,6.533-2.784,9.14c-0.833,1.656-2.878,3.645-4.461,3.717c-1.575,0.071-4.123-1.719-4.747-3.288
		c-5.899-14.841-11.569-29.775-17.02-44.786c-0.599-1.649-0.01-4.493,1.146-5.776c0.945-1.049,3.808-1.283,5.391-0.704
		c14.997,5.489,29.938,11.138,44.778,17.035c1.559,0.619,3.342,3.185,3.252,4.745c-0.092,1.596-2.08,3.633-3.744,4.461
		C266.438,194.751,263.402,195.201,259.87,196.202z"/>
</g>
</svg>
