<?xml version="1.0" encoding="utf-8"?>
<!-- Generator: Adobe Illustrator 16.0.0, SVG Export Plug-In . SVG Version: 6.00 Build 0)  -->
<!DOCTYPE svg PUBLIC "-//W3C//DTD SVG 1.1//EN" "http://www.w3.org/Graphics/SVG/1.1/DTD/svg11.dtd">
<svg version="1.1" id="Layer_1" xmlns="http://www.w3.org/2000/svg" xmlns:xlink="http://www.w3.org/1999/xlink" x="0px" y="0px"
	 width="385.65px" height="382.063px" viewBox="0 0 385.65 382.063" enable-background="new 0 0 385.65 382.063"
	 xml:space="preserve">
<g>
	<path fill-rule="evenodd" clip-rule="evenodd" fill="#FE8E00" d="M209.482,382.063c-14.97-0.436-28.42-3.633-41.209-9.42
		c-40.372-18.27-80.578-36.913-121.082-54.886c-23.885-10.599-38.952-28.202-44.884-53.398c-2.877-12.219-2.779-24.802-1.253-37.278
		c0.343-2.805,1.14-4.869,5.342-3.155c43.96,17.927,88.039,35.567,132.067,53.331c9.841,3.97,19.562,8.245,29.454,12.079
		c2.476,0.96,2.981,2.096,3.083,4.563c0.566,13.726,3.803,26.64,10.762,38.745c6.225,10.828,23.143,19.614,37.301,17.667
		c17.656-2.428,28.19-13.06,36.85-26.8c11.494-18.237,19.18-38.32,26.825-58.321c12.805-33.495,25.117-67.182,37.394-100.877
		c9.658-26.507,18.907-53.165,28.458-79.712c1.314-3.653,1.122-4.966-3.303-6.058c-36.339-8.968-72.581-18.332-108.85-27.584
		c-23.506-5.998-47.043-11.881-70.472-18.168c-3.141-0.843-3.709,0.265-4.536,2.391c-11.526,29.628-23.005,59.275-34.605,88.875
		c-10.055,25.657-20.243,51.26-30.382,76.883c-3.783,9.559-7.782,19.038-11.274,28.7c-0.979,2.711-1.755,2.298-3.806,1.526
		c-7.624-2.864-15.319-5.544-23.022-8.189c-3.563-1.224-2.7-3.733-1.797-6.034c8.214-20.951,16.525-41.864,24.774-62.802
		c12.551-31.857,25.084-63.72,37.609-95.588c6.443-16.394,12.781-32.83,19.306-49.191c2.825-7.083,11.042-10.742,18.652-8.877
		c36.036,8.833,72.076,17.644,108.134,26.385c35.895,8.702,71.826,17.252,107.709,25.997c11.4,2.778,15.408,11.239,11.425,22.441
		c-10.806,30.398-21.438,60.855-32.165,91.281c-11.537,32.726-23.508,65.291-35.737,97.766
		c-8.763,23.268-17.243,46.645-29.364,68.435c-11.791,21.196-26.954,38.664-51.604,45.518
		C226.488,380.748,217.531,381.049,209.482,382.063z"/>
	<path fill-rule="evenodd" clip-rule="evenodd" fill="#FE8E00" d="M252.91,255.124c-0.008,11.034-9.534,18.369-19.962,14.818
		c-21.883-7.453-43.671-15.191-65.43-23.003c-7.604-2.729-11.05-11.448-8.308-19.789c2.201-6.697,9.508-10.845,16.832-9.255
		c15.167,3.296,29.201,10.031,43.917,14.716c7.753,2.469,15.326,5.507,22.97,8.314C249.572,243.365,252.916,248.148,252.91,255.124z
		"/>
	<path fill-rule="evenodd" clip-rule="evenodd" fill="#FE8E00" d="M260.809,208.965c-4.591,0.775-8.88-1.783-13.289-3.303
		c-17.573-6.056-35.02-12.479-52.529-18.723c-9.88-3.523-14.083-10.556-11.967-20.211c1.755-8.011,11.41-13.027,20.108-9.993
		c21.379,7.458,42.704,15.075,63.985,22.811c7.195,2.616,11.215,10.241,9.746,17.401
		C275.301,204.563,269.571,208.968,260.809,208.965z"/>
	<path fill-rule="evenodd" clip-rule="evenodd" fill="#FE8E00" d="M302.904,131.378c0.01,11.409-9.625,17.936-21.564,14.299
		c-20.53-6.253-41.001-12.705-61.483-19.115c-9.761-3.055-13.301-10.821-10.729-20.802c1.908-7.401,11.69-11.432,20.399-8.772
		c19.916,6.08,39.833,12.156,59.762,18.19C298.678,118.021,302.897,122.977,302.904,131.378z"/>
	<path fill-rule="evenodd" clip-rule="evenodd" fill="#FE8E00" d="M176.389,111.977c-10.984,0-17.456-5.919-17.465-15.972
		c-0.009-9.971,6.592-15.528,17.382-16.175c9.442-0.565,17.202,7.566,16.73,16.387C192.506,106.121,186.785,111.977,176.389,111.977
		z"/>
	<path fill-rule="evenodd" clip-rule="evenodd" fill="#FE8E00" d="M152.627,171.119c-10.591-0.077-16.799-6.126-16.701-16.271
		c0.103-10.587,6.342-15.935,18.524-15.875c9.131,0.045,15.623,6.918,15.462,16.443
		C169.786,163.005,164.515,172.116,152.627,171.119z"/>
	<path fill-rule="evenodd" clip-rule="evenodd" fill="#FE8E00" d="M128.375,199.842c10.581-0.013,16.543,5.66,16.549,15.744
		c0.006,10.641-5.562,15.826-15.798,16.521c-11.36,0.771-18.164-7.252-18.02-16.267
		C111.261,206.291,118.098,199.156,128.375,199.842z"/>
</g>
</svg>
