<?xml version="1.0" encoding="utf-8"?>
<!-- Generator: Adobe Illustrator 16.0.0, SVG Export Plug-In . SVG Version: 6.00 Build 0)  -->
<!DOCTYPE svg PUBLIC "-//W3C//DTD SVG 1.1//EN" "http://www.w3.org/Graphics/SVG/1.1/DTD/svg11.dtd">
<svg version="1.1" id="Layer_1" xmlns="http://www.w3.org/2000/svg" xmlns:xlink="http://www.w3.org/1999/xlink" x="0px" y="0px"
	 width="241.475px" height="385.582px" viewBox="0 0 241.475 385.582" enable-background="new 0 0 241.475 385.582"
	 xml:space="preserve">
<g>
	<path fill="#999999" d="M121.662,385.48c-27.754-0.938-54.421-3.611-79.594-14.123c-14.419-6.021-27.515-14.104-35.805-28.018
		c-5.638-9.463-7.201-19.649-5.758-30.678c0.978-7.464,0.988-15.045,2.251-22.549c2.45-14.55,6.43-28.615,12.305-42.113
		c8.714-20.02,20.872-37.718,37.177-52.299c14.882-13.311,31.846-22.729,51.818-26.25c29.994-5.291,56.389,2.844,79.704,21.575
		c28.383,22.801,44.703,53.114,52.986,88.064c2.452,10.347,3.549,20.908,4.368,31.57c0.681,8.846,0.633,17.322-2.31,25.575
		c-4.406,12.357-13.58,20.651-24.452,27.382c-15.954,9.877-33.526,14.899-51.865,17.926c-10.235,1.688-20.448,3.002-30.848,3.022
		C128.067,384.572,124.52,385.96,121.662,385.48z"/>
	<path fill="#999999" d="M193.829,72.285c-1.051,38.42-29.498,68.281-63.773,72.145c-49.69,5.599-78.227-33.976-81.219-62.613
		c-5.245-50.2,34.345-78.254,62.642-81.322C160.49-4.821,192.792,33.683,193.829,72.285z"/>
</g>
</svg>
