<?xml version="1.0" encoding="utf-8"?>
<!-- Generator: Adobe Illustrator 16.0.0, SVG Export Plug-In . SVG Version: 6.00 Build 0)  -->
<!DOCTYPE svg PUBLIC "-//W3C//DTD SVG 1.1//EN" "http://www.w3.org/Graphics/SVG/1.1/DTD/svg11.dtd">
<svg version="1.1" id="Layer_1" xmlns="http://www.w3.org/2000/svg" xmlns:xlink="http://www.w3.org/1999/xlink" x="0px" y="0px"
	 width="241.474px" height="385.581px" viewBox="0 0 241.474 385.581" enable-background="new 0 0 241.474 385.581"
	 xml:space="preserve">
<g>
	<path fill-rule="evenodd" clip-rule="evenodd" fill="#FE8E00" d="M121.662,385.48c-27.754-0.938-54.421-3.611-79.594-14.123
		c-14.419-6.021-27.515-14.103-35.805-28.018c-5.637-9.463-7.201-19.649-5.757-30.677c0.977-7.464,0.988-15.046,2.251-22.549
		C5.207,275.563,9.186,261.497,15.061,248c8.714-20.02,20.872-37.718,37.177-52.3c14.882-13.31,31.846-22.728,51.818-26.25
		c29.995-5.291,56.389,2.844,79.704,21.575c28.383,22.8,44.704,53.114,52.987,88.065c2.452,10.346,3.549,20.907,4.368,31.57
		c0.681,8.845,0.633,17.322-2.31,25.575c-4.406,12.357-13.58,20.651-24.452,27.382c-15.954,9.876-33.526,14.899-51.865,17.925
		c-10.235,1.689-20.448,3.003-30.848,3.023C128.067,384.572,124.52,385.96,121.662,385.48z"/>
	<path fill-rule="evenodd" clip-rule="evenodd" fill="#FE8E00" d="M193.829,72.285c-1.051,38.42-29.498,68.281-63.774,72.145
		c-49.69,5.599-78.226-33.976-81.218-62.613c-5.245-50.2,34.344-78.254,62.641-81.322C160.49-4.821,192.792,33.683,193.829,72.285z"
		/>
</g>
</svg>
