<?xml version="1.0" encoding="utf-8"?>
<!-- Generator: Adobe Illustrator 16.0.0, SVG Export Plug-In . SVG Version: 6.00 Build 0)  -->
<!DOCTYPE svg PUBLIC "-//W3C//DTD SVG 1.1//EN" "http://www.w3.org/Graphics/SVG/1.1/DTD/svg11.dtd">
<svg version="1.1" id="Layer_1" xmlns="http://www.w3.org/2000/svg" xmlns:xlink="http://www.w3.org/1999/xlink" x="0px" y="0px"
	 width="278.44px" height="385.479px" viewBox="0 0 278.44 385.479" enable-background="new 0 0 278.44 385.479"
	 xml:space="preserve">
<g>
	<path fill-rule="evenodd" clip-rule="evenodd" fill="#FE8E00" d="M133.783,20.652c-16.799-1.182-30.96,4.543-43.316,15.195
		c-11.479,9.896-18.584,22.546-20.903,37.406c-1.343,8.607-2.042,17.457-1.286,26.237c0.703,8.155-3.245,12.131-11.605,10.951
		c-7.233-1.02-14.058-3.268-18.269-10.083c-1.426-2.309-2.207-4.692-2.184-7.412c0.053-6.5,0.318-13.016-0.046-19.495
		c-0.746-13.241,5.057-16.998,14.478-20.434c2.879-1.051,4.289-2.491,5.365-4.886c9.533-21.214,25.475-35.557,47.162-43.515
		c6.909-2.536,14.155-3.562,21.578-4.257c15.82-1.48,30.528,1.675,44.521,8.65c16.818,8.385,28.94,21.442,36.909,38.397
		c1.293,2.753,2.819,4.374,6.146,5.49c7.568,2.538,16.03,7.727,14.955,20.314c-0.452,5.293-0.075,10.659-0.075,15.991
		c0,10.083-3.938,16.035-13.377,19.239c-3.255,1.105-4.834,2.839-6.18,5.994c-9.195,21.552-24.465,36.974-46.67,45.201
		c-1.753,0.649-2.913,1.956-4.024,3.87c-3.171,5.463-7.94,9.106-14.786,9.033c-6.999-0.073-13.999,0.004-20.998-0.021
		c-10.682-0.038-16.808-6.331-17.879-15.228c-1.192-9.896,5.303-18.901,15.155-19.51c9.348-0.578,19.223-2.294,28.148,0.976
		c10.55,3.866,16.901-2.713,23.463-7.85c12.747-9.979,20.688-23.531,22.88-39.56c2.189-16.011-1.424-31.16-10.984-44.489
		c-5.861-8.172-13.275-14.647-22.179-19.473c-2.671-1.447-3.745-1.914-5.783,1.281c-11.501,18.021-26.62,31.605-47.939,37.047
		c-5.514,1.408-11.461-1.002-12.745-5.244c-1.971-6.519,0.243-11.888,6.559-14.026c11.658-3.948,21.498-10.403,29.629-19.611
		C131.122,24.997,132.693,23.216,133.783,20.652z"/>
	<path fill-rule="evenodd" clip-rule="evenodd" fill="#FE8E00" d="M233.376,238.445c3.032,10.213-0.767,15.673-10.443,15.074
		c-3.703-0.229-6.411-2.045-7.507-5.462c-6.571-20.5-23.237-27.827-42.014-32.435c-1.665-0.409-3.003,0.006-4.225,1.674
		c-8.614,11.771-20.851,16.358-34.902,17.223c-12.603,0.775-24.063-2.303-34.116-10.082c-1.694-1.312-3.706-2.61-4.664-4.4
		c-2.296-4.291-5.247-4.822-9.709-3.604c-13.959,3.813-26.415,9.722-34.473,22.476c-4.283,6.779-5.087,14.71-6.975,22.221
		c-6.87,27.322-13.39,54.731-20.03,82.111c-0.659,2.715-0.973,4.514,3.26,4.392c12.818-0.369,25.653-0.159,38.482-0.124
		c8.453,0.022,12.857,5.278,11.072,13.528c-0.948,4.383-3.927,6.519-8.607,6.495c-17.493-0.089-34.987-0.063-52.48-0.004
		c-2.569,0.008-5.243,1.008-7.684,0.555c-6.621-1.228-9.627-6.81-7.863-13.958c9.556-38.734,18.965-77.506,28.814-116.166
		c3.468-13.611,13.079-23.014,24.563-30.25c14.088-8.878,29.676-12.88,46.389-12.191c3.422,0.142,5.933,1.568,7.357,4.826
		c7.042,16.102,29.358,18.409,42.86,7.236c2.056-1.701,3.328-4.493,4.591-6.971c1.762-3.455,4.505-5.025,8.218-5.08
		c24.113-0.357,44.856,7.464,61.055,25.735c4.1,4.625,7.789,9.735,8.685,16.204c-3.3,0.205-6.607-0.148-9.839,0.131
		c-0.48-0.394,0.272,0.063-0.375,0.134c-0.275,0.03-0.196,0.115,0.28-0.01c1.364-0.356,2.779-0.162,4.183-0.205
		C229.355,237.572,231.479,237.261,233.376,238.445z"/>
	<path fill-rule="evenodd" clip-rule="evenodd" fill="#FE8E00" d="M195.256,347.499c24.302,0,48.117-0.025,71.933,0.014
		c8.95,0.015,13.907,7.955,9.779,15.546c-1.715,3.153-4.3,4.503-7.997,4.488c-24.655-0.097-49.311-0.05-74.423-0.05
		c3.224,5.372,4.05,10.431-0.862,15.037c-4.051,3.799-9.612,3.979-13.681,0.211c-5.592-5.182-11.166-10.385-16.624-15.706
		c-5.99-5.84-5.978-12.204-0.125-18.056c4.946-4.947,9.827-9.967,14.907-14.773c7.07-6.691,16.464-4.276,18.866,4.623
		C197.848,341.868,196.054,344.215,195.256,347.499z"/>
	<path fill-rule="evenodd" clip-rule="evenodd" fill="#FE8E00" d="M242.874,305.505c-24.8,0-49.107,0.001-73.414-0.001
		c-7.318-0.001-10.15-2.648-10.237-9.551c-0.083-6.492,3.652-10.4,10.351-10.421c22.145-0.066,44.29-0.025,66.435-0.025
		c1.827,0,3.654,0,5.779,0c-0.984-3.901-2.589-7.506-0.477-11.438c3.106-5.784,10.984-7.526,15.862-3.074
		c5.75,5.249,11.448,10.563,16.985,16.035c5.589,5.523,5.604,12.262,0.004,17.854c-5.506,5.499-11.215,10.8-16.941,16.074
		c-3.561,3.279-9.03,3.635-13.114,0.372c-3.538-2.828-4.974-6.695-3.207-11.412C241.41,308.557,242.155,307.314,242.874,305.505z"/>
	<path fill-rule="evenodd" clip-rule="evenodd" fill="#FE8E00" d="M155.66,78.534c4.948-0.342,10.607-0.015,13.483,6.089
		c3.192,6.776-0.421,13.101-8.627,14.569c-4.114,0.736-8.428,0.9-12.698-0.406c-6.521-1.995-9.334-5.44-8.588-11.389
		c0.669-5.336,4.796-8.64,11.106-8.856C151.83,78.49,153.325,78.534,155.66,78.534z"/>
	<path fill-rule="evenodd" clip-rule="evenodd" fill="#FE8E00" d="M108.04,78.54c1.825,0.006,3.667-0.161,5.471,0.035
		c6.72,0.733,9.725,4.052,9.715,10.537c-0.01,6.682-2.867,9.679-10.865,10.302c-3.696,0.288-7.458,0.493-11.268-0.672
		c-6.8-2.078-8.419-4.105-7.86-11.838c0.344-4.757,4.187-8.052,9.832-8.355C104.718,78.459,106.381,78.535,108.04,78.54z"/>
	<path fill-rule="evenodd" clip-rule="evenodd" fill="#E58101" d="M222.187,237.48c3.612-1.645,7.227-1.35,10.842-0.012
		c0.116,0.325,0.232,0.651,0.348,0.977c-2.402,0.013-4.804,0.026-7.207,0.039C225.036,237.381,223.311,238.625,222.187,237.48z"/>
	<path fill-rule="evenodd" clip-rule="evenodd" fill="#CB7200" d="M222.187,237.48c1.362,0.2,2.939-0.455,3.983,1.004
		c-1.558-0.012-3.238,0.329-4.628-0.159C220.619,238.001,221.799,237.69,222.187,237.48z"/>
</g>
</svg>
