<?xml version="1.0" encoding="utf-8"?>
<!-- Generator: Adobe Illustrator 16.0.0, SVG Export Plug-In . SVG Version: 6.00 Build 0)  -->
<!DOCTYPE svg PUBLIC "-//W3C//DTD SVG 1.1//EN" "http://www.w3.org/Graphics/SVG/1.1/DTD/svg11.dtd">
<svg version="1.1" id="Layer_1" xmlns="http://www.w3.org/2000/svg" xmlns:xlink="http://www.w3.org/1999/xlink" x="0px" y="0px"
	 width="386.192px" height="346.332px" viewBox="0 0 386.192 346.332" enable-background="new 0 0 386.192 346.332"
	 xml:space="preserve">
<g>
	<path fill-rule="evenodd" clip-rule="evenodd" fill="#FE8E00" d="M212.831,50.836c-11.318,3.514-21.146,9.31-30.141,16.394
		c-23.785,18.735-37.952,43.391-44.758,72.72c-2.818,12.141-4.776,24.35-5.786,36.728c-0.195,2.39-1.197,2.633-3.099,2.612
		c-5.997-0.065-11.997-0.133-17.99,0.027c-2.509,0.066-2.898-0.947-3.039-3.198c-2.079-33.263,6.243-63.719,26.372-90.206
		c18.987-24.984,43.945-41.549,75.203-47.634c8.002-1.558,8.02-1.469,5.263-8.66c-4.057-10.584,0.342-22.611,9.973-27.271
		c10.499-5.079,23.241-1.695,28.949,8.004c3.97,6.746,4.301,14.088,0.779,21.006c-2.188,4.3-2.928,5.248,3.072,6.22
		c18.447,2.988,35.477,10.22,50.511,21.401c28.022,20.841,45.492,48.36,52.067,82.886c2.199,11.542,1.492,23.039,1.865,34.573
		c0.07,2.164-0.638,3.09-2.835,2.846c-0.987-0.11-1.997-0.017-2.997-0.017c-67.136,0-134.272,0-201.408-0.001
		c-5.951,0-5.401,0.038-4.94-6.126c0.759-10.155,2.194-20.177,4.186-30.134c4.443-22.218,12.421-42.919,26.636-60.85
		c8.85-11.163,19.04-20.976,30.45-29.518C211.808,52.156,212.279,51.442,212.831,50.836z"/>
	<path fill-rule="evenodd" clip-rule="evenodd" fill="#FE8E00" d="M138.127,252.529c1.232,1.423,2.298,1.818,3.529,1.718
		c8.315-0.677,16.576,0.639,24.801,1.252c7.54,0.562,15.173,0.024,22.671,1.659c4.788,1.044,8.836-2.027,13.088-3.559
		c20.145-7.256,40.194-14.761,59.839-23.315c4.656-2.027,12.098-1.688,14.932,1.52c3.003,3.399,3.904,9.2,1.821,13.351
		c-0.653,1.303-1.557,2.301-2.898,3.209c-22.831,15.461-45.731,30.804-69.387,45c-8.795,5.277-17.845,8.341-28.396,8.048
		c-19.814-0.552-39.657-0.285-59.485-0.092c-6.974,0.068-13.849-0.95-20.783-1.263c-9.727-0.438-15.704,4.469-20.985,11.523
		c-0.971,1.297-1.373,4.076-3.562,3.44c-1.945-0.564-1.938-3.079-2.203-4.92c-2.676-18.572-5.482-37.119-8.819-55.588
		c-0.519-2.874-0.635-5.849-1.17-8.762c-0.766-4.163,0.439-6.371,5.178-7.796c10.439-3.136,20.624-7.188,30.747-11.276
		c5.754-2.324,11.829-3.134,17.709-3.199c11.283-0.125,22.524-1.371,33.785-1.132c10.479,0.222,20.842-1.689,31.322-1.129
		c5.37,0.288,8.607,2.527,9.197,6.999c1.038,7.867-0.609,11.337-6.64,12.928C167.804,244.998,153.145,248.681,138.127,252.529z"/>
	<path fill-rule="evenodd" clip-rule="evenodd" fill="#FE8E00" d="M234.901,213.262c-48.658,0-97.315-0.045-145.973,0.086
		c-3.85,0.011-5.176-0.857-4.946-4.874c0.362-6.312,0.326-12.67,0.008-18.987c-0.184-3.668,1.137-4.415,4.505-4.297
		c7.157,0.25,14.328,0.076,21.494,0.076c90.15,0,180.3,0.034,270.45-0.102c4.476-0.007,6.051,0.983,5.708,5.642
		c-0.439,5.966-0.387,12.008-0.008,17.982c0.25,3.952-1.203,4.56-4.766,4.552C332.55,213.224,283.726,213.262,234.901,213.262z"/>
	<path fill-rule="evenodd" clip-rule="evenodd" fill="#FE8E00" d="M0.089,296.899c0-14.825,0.109-29.653-0.078-44.476
		c-0.045-3.613,1.246-4.727,4.682-5.252c12.417-1.898,24.805-4.027,37.141-6.388c2.541-0.486,5.168-0.332,7.689-1.413
		c3.232-1.385,3.98,1.582,4.38,3.645c1.865,9.614,3.414,19.289,5.193,28.921c3.198,17.308,6.471,34.602,9.743,51.896
		c0.423,2.241,0.212,4.52,1.094,6.775c0.721,1.845-0.169,3.242-2.671,3.701c-21.005,3.854-41.978,7.88-62.961,11.854
		c-3.065,0.58-4.349-0.247-4.3-3.79C0.207,327.216,0.089,312.057,0.089,296.899z"/>
</g>
</svg>
