<?xml version="1.0" encoding="utf-8"?>
<!-- Generator: Adobe Illustrator 16.0.0, SVG Export Plug-In . SVG Version: 6.00 Build 0)  -->
<!DOCTYPE svg PUBLIC "-//W3C//DTD SVG 1.1//EN" "http://www.w3.org/Graphics/SVG/1.1/DTD/svg11.dtd">
<svg version="1.1" id="Layer_4_xA0_Image_1_" xmlns="http://www.w3.org/2000/svg" xmlns:xlink="http://www.w3.org/1999/xlink"
	 x="0px" y="0px" width="500px" height="500px" viewBox="0 0 500 500" enable-background="new 0 0 500 500" xml:space="preserve">
<g>
	<path fill-rule="evenodd" clip-rule="evenodd" d="M151.178,462.056c-15.809-24.22-31.236-47.856-47.306-72.477
		c7.479,0,14.131,0,21.557,0c0-104.158,0-207.495,0-311.204c17.514,0,34.239,0,51.46,0c0,103.326,0,206.78,0,310.766
		c7.026,0,13.58,0,21.221,0C182.221,413.826,166.898,437.633,151.178,462.056z"/>
	<path fill-rule="evenodd" clip-rule="evenodd" d="M207.06,129.612c0-17.11,0-33.88,0-50.924c87.043,0,173.787,0,260.855,0
		c0,17.008,0,33.771,0,50.924C381.141,129.612,294.275,129.612,207.06,129.612z"/>
	<path fill-rule="evenodd" clip-rule="evenodd" d="M207.021,210.539c0-17.05,0-33.812,0-50.983c66.881,0,133.69,0,200.86,0
		c0,16.917,0,33.791,0,50.983C341.061,210.539,274.369,210.539,207.021,210.539z"/>
	<path fill-rule="evenodd" clip-rule="evenodd" d="M326.588,240.268c0,17.008,0,33.761,0,50.919c-39.725,0-79.412,0-119.465,0
		c0-16.934,0-33.792,0-50.919C246.945,240.268,286.633,240.268,326.588,240.268z"/>
	<path fill-rule="evenodd" clip-rule="evenodd" d="M207.114,320.955c22,0,43.616,0,65.681,0c0,16.869,0,33.706,0,50.796
		c-21.838,0-43.582,0-65.681,0C207.114,354.93,207.114,338.216,207.114,320.955z"/>
</g>
</svg>
